HIERARCHY
ROOT Hips
{
	OFFSET 0.000000 0.000000 0.000000 
	CHANNELS 6 Xposition Yposition Zposition Zrotation Yrotation Xrotation
	JOINT LeftUpLeg
	{
		OFFSET 1.363060 -1.794630 0.839290 
		CHANNELS 3 Zrotation Yrotation Xrotation
		JOINT LeftLeg
		{
			OFFSET 2.448110 -6.726130 0.000000 
			CHANNELS 3 Zrotation Yrotation Xrotation
			JOINT LeftFoot
			{
				OFFSET 2.562200 -7.039590 0.000000 
				CHANNELS 3 Zrotation Yrotation Xrotation
				JOINT LeftToeBase
				{
					OFFSET 0.157640 -0.433110 2.322550 
					CHANNELS 3 Zrotation Yrotation Xrotation
					End Site
					{
						OFFSET 0.000000 0.000000 0.000000 
					}
				}
			}
		}
	}
	JOINT RightUpLeg
	{
		OFFSET -1.305520 -1.794630 0.839290 
		CHANNELS 3 Zrotation Yrotation Xrotation
		JOINT RightLeg
		{
			OFFSET -2.542530 -6.985550 0.000000 
			CHANNELS 3 Zrotation Yrotation Xrotation
			JOINT RightFoot
			{
				OFFSET -2.568260 -7.056230 0.000000 
				CHANNELS 3 Zrotation Yrotation Xrotation
				JOINT RightToeBase
				{
					OFFSET -0.164730 -0.452590 2.363150 
					CHANNELS 3 Zrotation Yrotation Xrotation
					End Site
					{
						OFFSET 0.000000 0.000000 0.000000 
					}
				}
			}
		}
	}
	JOINT Spine
	{
		OFFSET 0.028270 2.035590 -0.193380 
		CHANNELS 3 Zrotation Yrotation Xrotation
		JOINT Spine1
		{
			OFFSET 0.056720 2.048850 -0.042750 
			CHANNELS 3 Zrotation Yrotation Xrotation
			JOINT Neck1
			{
				OFFSET -0.054170 1.746240 0.172020 
				CHANNELS 3 Zrotation Yrotation Xrotation
				JOINT Head
				{
					OFFSET 0.104070 1.761360 -0.123970 
					CHANNELS 3 Zrotation Yrotation Xrotation
					End Site
					{
						OFFSET 0.000000 0.000000 0.000000 
					}
				}
			}
			JOINT LeftArm
			{
				OFFSET 3.362410 1.200890 -0.311210 
				CHANNELS 3 Zrotation Yrotation Xrotation
				JOINT LeftForeArm
				{
					OFFSET 4.983000 -0.000000 -0.000000 
					CHANNELS 3 Zrotation Yrotation Xrotation
					JOINT LeftHand
					{
						OFFSET 3.483560 -0.000000 -0.000000 
						CHANNELS 3 Zrotation Yrotation Xrotation
						JOINT LeftHandIndex1
						{
							OFFSET 0.715260 -0.000000 -0.000000 
							CHANNELS 3 Zrotation Yrotation Xrotation
							End Site
							{
								OFFSET 0.000000 0.000000 0.000000 
							}
						}
					}
				}
			}
			JOINT RightArm
			{
				OFFSET -3.136600 1.374050 -0.404650 
				CHANNELS 3 Zrotation Yrotation Xrotation
				JOINT RightForeArm
				{
					OFFSET -5.241900 -0.000000 -0.000000 
					CHANNELS 3 Zrotation Yrotation Xrotation
					JOINT RightHand
					{
						OFFSET -3.444170 -0.000000 -0.000000 
						CHANNELS 3 Zrotation Yrotation Xrotation
						JOINT RightHandIndex1
						{
							OFFSET -0.622530 -0.000000 -0.000000 
							CHANNELS 3 Zrotation Yrotation Xrotation
							End Site
							{
								OFFSET 0.000000 0.000000 0.000000 
							}
						}
					}
				}
			}
		}
	}
}
MOTION
Frames: 15
Frame Time: 0.041667
-0.075802 17.035584 -3.462511 -0.941990 -8.659736 8.635074 -30.393692 -13.636087 -6.357988 -0.867989 8.075578 20.879535 0.119869 7.013070 -16.794598 0.048800 1.425800 3.921100 35.797190 10.597396 -7.963783 0.527500 -9.235718 25.083531 0.154733 -10.352823 -19.239893 -0.068900 -1.694000 4.660800 1.164049 -2.861789 -5.316502 -1.617806 -1.590529 -0.618591 5.787424 -9.790437 16.208493 -1.367800 -3.226700 15.377400 -101.987016 8.330165 9.147686 21.924502 -31.436074 -4.140356 0.182625 4.475327 22.199836 -7.125000 0.000000 0.000000 94.186187 -1.429607 25.026983 -18.189372 29.337995 -2.813165 -0.772847 -3.007238 18.476441 7.125000 0.000000 0.000000 
-0.075802 17.036124 -3.466398 -0.969282 -8.676402 8.653755 -30.350325 -13.647704 -6.406856 -0.864999 8.087687 20.904272 0.119391 7.021077 -16.803631 0.050700 1.453600 3.997900 35.827223 10.613246 -7.978425 0.535507 -9.228316 25.049587 0.155750 -10.338144 -19.205685 -0.070900 -1.718000 4.726900 1.166773 -2.827865 -5.318115 -1.666195 -1.576335 -0.628306 5.768047 -9.476275 16.351596 -1.411900 -3.053000 15.530200 -101.962322 8.318299 8.956751 21.807954 -31.321530 -4.112286 0.202106 4.479874 22.327202 -7.125000 0.000000 0.000000 94.239465 -1.377341 24.598721 -17.987464 29.138898 -2.773627 -0.831846 -2.955446 18.827692 7.125000 0.000000 0.000000 
-0.074831 17.036880 -3.469854 -0.968319 -8.664590 8.664856 -30.340589 -13.652202 -6.451002 -0.864156 8.097007 20.919258 0.119402 7.004798 -16.782306 0.050400 1.449300 3.985900 35.810546 10.567707 -8.009870 0.538527 -9.223161 25.030516 0.151613 -10.284665 -19.165350 -0.069500 -1.701100 4.680400 1.163549 -2.793605 -5.319211 -1.721030 -1.562372 -0.629649 5.725320 -9.286552 16.481285 -1.476500 -2.934200 15.679800 -101.932444 8.302434 8.785243 21.701529 -31.209450 -4.085286 0.211156 4.486136 22.471584 -7.125000 0.000000 0.000000 94.253108 -1.378354 24.312810 -17.905770 29.057838 -2.763818 -0.843745 -2.967747 18.946123 7.125000 0.000000 0.000000 
-0.074399 17.037096 -3.473201 -0.967506 -8.648299 8.685735 -30.328373 -13.671515 -6.498309 -0.863668 8.107371 20.934091 0.118531 6.995446 -16.761147 0.050000 1.443600 3.970200 35.799393 10.559207 -8.031383 0.542558 -9.217821 25.008378 0.146872 -10.251346 -19.162590 -0.071800 -1.729100 4.757500 1.159142 -2.754625 -5.312157 -1.802290 -1.545377 -0.591960 5.750429 -8.918285 16.607748 -1.466500 -2.746300 15.813700 -101.863102 8.292029 8.722348 21.692770 -31.192707 -4.085033 0.212403 4.488160 22.442360 -7.125000 0.000000 0.000000 94.312403 -1.328080 23.894632 -17.739815 28.902002 -2.728119 -0.877497 -2.916026 19.248346 7.125000 0.000000 0.000000 
-0.073643 17.037528 -3.476440 -0.966215 -8.637774 8.707970 -30.317886 -13.685438 -6.544000 -0.864009 8.114986 20.941616 0.117618 6.988815 -16.742633 0.050100 1.444200 3.972000 35.784078 10.542629 -8.063519 0.545702 -9.215118 24.992553 0.141019 -10.203815 -19.148729 -0.073300 -1.746900 4.806700 1.156040 -2.719529 -5.306263 -1.868750 -1.530188 -0.555187 5.747723 -8.611524 16.733127 -1.483900 -2.584700 15.952400 -101.813737 8.277366 8.621593 21.657861 -31.153343 -4.078059 0.219074 4.489895 22.463143 -7.125000 0.000000 0.000000 94.346803 -1.284619 23.544315 -17.614786 28.786496 -2.706931 -0.896964 -2.905021 19.456428 7.125000 0.000000 0.000000 
-0.072779 17.038067 -3.479572 -0.961016 -8.625383 8.734174 -30.311173 -13.700926 -6.593759 -0.864540 8.123358 20.949545 0.117008 6.980139 -16.724809 0.050100 1.444400 3.972600 35.761911 10.525277 -8.099872 0.548681 -9.212916 24.977098 0.133979 -10.149904 -19.137973 -0.075000 -1.767200 4.862700 1.153186 -2.686822 -5.298576 -1.931721 -1.515585 -0.505504 5.742864 -8.309845 16.852084 -1.500300 -2.428700 16.085000 -101.767629 8.264219 8.539602 21.648683 -31.141256 -4.078087 0.224027 4.490116 22.448532 -7.125000 0.000000 0.000000 94.372190 -1.235102 23.218715 -17.505891 28.687999 -2.690253 -0.909178 -2.905235 19.631532 7.125000 0.000000 0.000000 
-0.071699 17.038499 -3.482487 -0.952841 -8.614087 8.763977 -30.308234 -13.716659 -6.643493 -0.866050 8.130078 20.952099 0.116246 6.973333 -16.707101 0.050200 1.446600 3.978400 35.734469 10.511225 -8.141274 0.551222 -9.212164 24.964735 0.126213 -10.092764 -19.130273 -0.077000 -1.790400 4.926700 1.150844 -2.654943 -5.289651 -1.990705 -1.500868 -0.446310 5.730717 -8.018075 16.964736 -1.523100 -2.278800 16.213500 -101.725717 8.253745 8.477670 21.666329 -31.157316 -4.085436 0.227921 4.488431 22.396612 -7.125000 0.000000 0.000000 94.390770 -1.178588 22.910411 -17.406958 28.598377 -2.676154 -0.918220 -2.910408 19.786073 7.125000 0.000000 0.000000 
-0.070403 17.039147 -3.485295 -0.941305 -8.603308 8.796368 -30.309385 -13.732187 -6.694176 -0.868147 8.135708 20.950783 0.115429 6.966308 -16.689655 0.050400 1.449400 3.986400 35.701092 10.496094 -8.188365 0.553095 -9.212676 24.955301 0.117378 -10.029774 -19.124473 -0.078900 -1.812500 4.987600 1.149272 -2.624614 -5.280313 -2.043736 -1.486338 -0.385044 5.710949 -7.738828 17.066738 -1.553600 -2.136400 16.331100 -101.691545 8.247514 8.428962 21.705802 -31.197032 -4.098769 0.230201 4.485612 22.315618 -7.125000 0.000000 0.000000 94.400351 -1.122358 22.626430 -17.319731 28.516691 -2.664040 -0.927035 -2.914866 19.920738 7.125000 0.000000 0.000000 
-0.068892 17.039795 -3.488102 -0.927943 -8.594163 8.829961 -30.312919 -13.746116 -6.745635 -0.870627 8.140671 20.947106 0.114536 6.959694 -16.670721 0.050700 1.453400 3.997400 35.664278 10.484074 -8.238668 0.554830 -9.214236 24.948002 0.108534 -9.966931 -19.119707 -0.080700 -1.832900 5.044100 1.148092 -2.594462 -5.270298 -2.091564 -1.471401 -0.320284 5.680756 -7.486843 17.158002 -1.595400 -2.007100 16.440800 -101.662798 8.244160 8.397597 21.769088 -31.261452 -4.118447 0.230222 4.481431 22.202987 -7.125000 0.000000 0.000000 94.403040 -1.065464 22.369350 -17.247498 28.447340 -2.655733 -0.938585 -2.919756 20.028324 7.125000 0.000000 0.000000 
-0.066948 17.040551 -3.491018 -0.913341 -8.585511 8.863563 -30.319027 -13.759589 -6.797037 -0.873473 8.145200 20.941666 0.113412 6.954609 -16.651011 0.050900 1.455300 4.002500 35.624563 10.469498 -8.291738 0.556026 -9.216362 24.942123 0.096267 -9.892079 -19.131922 -0.084300 -1.873300 5.155600 1.147527 -2.563583 -5.260475 -2.139679 -1.455565 -0.261640 5.645654 -7.233562 17.234934 -1.645900 -1.877800 16.532400 -101.637447 8.251180 8.389113 21.856688 -31.351479 -4.144923 0.226052 4.478177 22.054981 -7.125000 0.000000 0.000000 94.404404 -1.016844 22.116245 -17.177700 28.373212 -2.645158 -0.956107 -2.907449 20.148434 7.125000 0.000000 0.000000 
-0.064680 17.041415 -3.494041 -0.898863 -8.576711 8.899324 -30.325833 -13.775967 -6.850137 -0.876469 8.149770 20.935677 0.111972 6.952023 -16.631081 0.051200 1.460500 4.016800 35.583486 10.456496 -8.347895 0.557310 -9.218929 24.936715 0.081800 -9.812080 -19.157464 -0.089300 -1.927600 5.305500 1.146589 -2.530938 -5.249537 -2.189461 -1.438618 -0.200549 5.610412 -6.991535 17.297098 -1.697900 -1.755000 16.607500 -101.609195 8.259399 8.407218 21.963094 -31.460070 -4.176963 0.218705 4.475800 21.875728 -7.125000 0.000000 0.000000 94.407856 -0.969698 21.876663 -17.118268 28.310079 -2.637166 -0.975197 -2.894935 20.254678 7.125000 0.000000 0.000000 
-0.062197 17.042171 -3.497281 -0.888483 -8.567691 8.937221 -30.329322 -13.795351 -6.904969 -0.879391 8.154715 20.930346 0.109774 6.954371 -16.610190 0.051500 1.465000 4.029100 35.547119 10.451968 -8.403517 0.558949 -9.221806 24.930404 0.066375 -9.734986 -19.197067 -0.095600 -1.993700 5.488200 1.145753 -2.497459 -5.237879 -2.239047 -1.421035 -0.139923 5.575069 -6.761579 17.345265 -1.750200 -1.639700 16.665400 -101.580209 8.271366 8.449751 22.087060 -31.586699 -4.214324 0.208226 4.474844 21.667672 -7.125000 0.000000 0.000000 94.411752 -0.927176 21.652894 -17.071365 28.259463 -2.632147 -0.993966 -2.884480 20.340173 7.125000 0.000000 0.000000 
-0.059497 17.043035 -3.500952 -0.880068 -8.558985 8.978029 -30.331004 -13.818253 -6.963965 -0.882046 8.160897 20.927040 0.107131 6.960782 -16.590335 0.052000 1.471100 4.046100 35.512766 10.455396 -8.460593 0.561034 -9.224780 24.922970 0.051503 -9.665192 -19.242673 -0.102100 -2.060900 5.674000 1.144818 -2.462606 -5.225880 -2.286863 -1.402491 -0.081299 5.539982 -6.547676 17.381244 -1.802200 -1.533300 16.709100 -101.549151 8.284790 8.517301 22.223388 -31.725293 -4.255288 0.195310 4.474500 21.435721 -7.125000 0.000000 0.000000 94.417833 -0.888668 21.439780 -17.034765 28.218808 -2.629361 -1.013238 -2.873690 20.407946 7.125000 0.000000 0.000000 
-0.056474 17.043790 -3.504839 -0.877448 -8.550137 9.021878 -30.326515 -13.845282 -7.027142 -0.884532 8.167934 20.925799 0.104221 6.970932 -16.571131 0.052400 1.477800 4.064600 35.485715 10.469054 -8.518876 0.563693 -9.228365 24.914296 0.039673 -9.612885 -19.284023 -0.107400 -2.112700 5.817100 1.144626 -2.428901 -5.214576 -2.329576 -1.384362 -0.030686 5.506930 -6.348077 17.407403 -1.851000 -1.435600 16.742100 -101.520594 8.300909 8.601580 22.367534 -31.872065 -4.298849 0.179861 4.475354 21.186683 -7.125000 0.000000 0.000000 94.424675 -0.852005 21.236982 -17.004195 28.182905 -2.627410 -1.031991 -2.861974 20.462684 7.125000 0.000000 0.000000 
-0.053235 17.044438 -3.509051 -0.879331 -8.542243 9.067367 -30.316751 -13.873961 -7.093620 -0.886708 8.175848 20.926405 0.100969 6.982547 -16.552456 0.053000 1.486300 4.088000 35.465183 10.496310 -8.575863 0.567000 -9.232507 24.905097 0.032575 -9.584654 -19.315494 -0.110400 -2.142700 5.900200 1.144651 -2.394511 -5.203558 -2.367247 -1.366056 0.014317 5.477914 -6.165284 17.425658 -1.894500 -1.347200 16.768800 -101.491699 8.315043 8.703670 22.516790 -32.023447 -4.344351 0.163372 4.477440 20.924114 -7.125000 0.000000 0.000000 94.433064 -0.814227 21.042772 -16.981432 28.154697 -2.626927 -1.048968 -2.851756 20.498462 7.125000 0.000000 0.000000 
